<svg xmlns="http://www.w3.org/2000/svg" width="1244" height="336" fill="none" viewBox="0 0 1244 336">
  <path fill="currentColor"
    d="M144.052.892c-10.666 1.333-33.333 8-44.933 13.066C49.652 35.691 14.052 80.091 2.452 134.625c-2.933 13.867-3.333 50.933-.666 63.333 7.866 35.734 23.2 64.8 46.8 88.4 22.666 22.667 48.133 37.067 80.933 45.734 15.467 4 48.8 5.066 67.333 1.866 102.934-17.2 165.2-122.133 131.334-221.6-19.334-56.667-67.6-98.267-127.734-109.866-12.4-2.4-43.6-3.334-56.4-1.6Zm50.8 14.4c21.734 3.733 44.134 12.666 62.534 25.066 9.6 6.534 26.8 22.934 34.666 32.934 14.4 18.666 25.467 43.866 29.467 67.066 2.933 16.8 1.867 50.534-2 65.334-13.867 52.266-50.667 92-101.2 108.933-11.6 3.867-31.733 8-39.2 8h-3.867l.4-35.733.4-35.867 4-6.4c4.4-7.067 4.4-7.067 38-23.2 26.934-12.933 42.934-27.333 54.134-48.667 7.2-13.466 9.866-23.6 10.8-40l.8-14.533-11.2.933c-28.267 2.4-52.534 13.067-68.4 30.134-7.6 8.266-20.4 27.866-25.6 39.333l-3.067 6.667v-11.2l-.133-11.2 9.866-16.8c13.6-23.067 16-30.534 16-48.134-.133-11.6-.666-15.466-3.466-22.933-4.667-12.534-10.934-22.534-20.534-32.934l-8.133-8.8-6.133 5.067c-16.8 13.734-28.934 38.533-28.934 59.334 0 16 3.867 26.4 19.467 52.4l8.533 14.133v22.4l-8-15.2c-20.8-39.733-44.133-57.2-82-61.467-19.733-2.133-18-3.2-18 10.4 0 23.467 9.067 45.867 25.734 63.734 14.666 15.733 29.866 25.333 55.466 35.2 14.134 5.466 21.6 12.266 24.667 22.533 1.733 5.733 2.133 13.867 2.133 39.2v32l-9.6-.933c-58.4-5.867-112.533-48.667-130.933-103.734-6.4-18.8-7.867-28.4-7.867-50.4 0-22.266 1.6-33.333 8-52 15.2-44.666 54.267-82.133 100-96 22.267-6.666 50.534-8.533 73.2-4.666Zm-18.266 57.2c8.533 13.066 11.333 22 11.333 36.133 0 14.533-2.533 22.267-12.533 37.867-8.134 12.666-7.467 12.8-16.667-3.2-16-28.134-14.933-50.667 3.6-75.067 6.267-8.133 6.267-8.133 14.267 4.267Zm-85.867 65.066c12 3.734 27.6 14.4 35.333 24 11.6 14.4 24.534 41.067 27.2 56l.934 5.067-11.734-4.133c-22.533-8-38-17.6-51.866-32.134-13.6-14.4-23.2-34.666-23.2-49.2v-4.8l7.066 1.067c3.734.667 11.2 2.4 16.267 4.133Zm177.333 9.734c-5.866 25.733-25.466 48.133-54.533 62.4-10.933 5.333-29.867 12.266-30.933 11.2-1.2-1.067 4.266-17.6 9.333-28.267 7.067-14.933 16.133-28.933 23.733-36.267 10.934-10.666 28-19.066 45.067-22.266 8.533-1.6 8.667-1.6 9.067 1.2.266 1.6-.534 7.066-1.734 12ZM978.719 32.625c-22 8-18.133 41.733 5.2 44.266 11.467 1.334 21.471-5.466 24.931-16.8 5.2-17.6-12.664-33.866-30.131-27.466Zm-87.067 24.267c-.8.4-5.333 6-9.733 12.533-10 14.533-22.133 25.867-34.533 32.4-8.8 4.667-9.334 5.2-9.334 9.6v4.533h19.334v53.734c0 49.2.266 54.266 2.533 60.8 3.6 10.4 12.8 19.333 22.933 22.266 19.6 5.6 44.934-2.4 54-17.333 2.134-3.6 2.134-4.267.4-7.867-1.866-3.466-2.266-3.733-4.4-1.733-6.933 6.267-21.6 8-29.2 3.467-8.666-5.334-8.933-6.934-8.933-62.934v-50.4h34.933l-.4-7.066-.266-6.934h-33.6V79.692c0-12.267-.4-22.534-.934-22.8-.666-.267-1.866-.267-2.8 0ZM548.719 79.558c-6 2.267-20.667 10.133-28.4 15.467l-8.8 6-8.4-2.667c-4.667-1.467-14.133-2.933-21.2-3.333-30.133-1.734-56.133 11.066-66.267 32.666-3.2 6.667-3.6 9.2-3.6 20.934 0 11.733.4 14.266 3.6 21.066 2 4.267 6.934 11.2 11.067 15.467l7.467 7.867-4.667 2.8c-6.533 4-13.6 12.266-15.467 18.133-.933 2.667-1.333 8.4-1.066 12.667.666 9.2 4.8 15.6 14.133 21.466 5.067 3.2 5.6 3.867 3.467 4.667-1.334.533-6.934 2.933-12.267 5.467-13.2 6.133-16.8 11.466-16 23.6.667 11.066 5.067 16.933 17.2 23.066 14.8 7.6 22.933 9.067 49.2 8.934 21.467 0 24.267-.4 35.067-3.6 16.666-5.067 24.266-9.467 33.733-18.8 10.133-10.134 13.867-19.067 13.867-33.2 0-11.734-2.934-18.8-10.134-24.667-9.066-7.467-14.8-8.533-53.2-9.6-37.066-.933-42-1.867-46.533-8.133-2.8-4.134-2.667-10.8.4-14.667l2.4-3.067 10.267 2.267c18.933 4.133 41.333 2.133 55.733-5.2 9.6-4.8 20.4-15.467 24.667-24.4 3.333-6.667 3.733-8.933 3.733-21.467 0-12.4-.4-14.933-3.467-21.466-2-4.134-5.733-9.867-8.4-12.8-2.666-2.934-4.8-5.734-4.8-6.267 0-.4 7.2-.8 16-.8h16V93.292c0-15.067-.266-15.6-5.333-13.734Zm-60.267 32c10.4 8.4 15.734 25.333 14.534 46.533-1.2 21.067-7.6 30.934-21.067 32.267-9.333.933-15.333-.667-20.667-5.333-9.066-8-13.866-22.134-13.866-41.067 0-27.467 7.866-38.133 27.066-36.933 7.6.533 9.867 1.2 14 4.533Zm6.934 144.8c25.466.4 30 1.467 33.066 8.267 9.334 20.533-19.2 38.933-56.4 36.266-17.866-1.333-29.466-6.133-35.866-14.666-3.867-5.334-4-19.334-.134-23.6 5.6-6.4 8.8-7.334 22.8-7.067 7.2.267 23.734.533 36.534.8Zm119.333-160c-4.667 3.2-19.6 8.533-34.267 12.267l-14.4 3.733v4.267c0 4 .4 4.4 5.467 5.066 3.067.4 6.8 2 8.4 3.6 2.8 2.667 2.8 3.6 2.8 55.867v53.2l-3.2 3.333c-1.6 1.867-5.2 3.867-8 4.534-4.267 1.066-4.8 1.733-5.2 5.733l-.4 4.667h76.133v-5.067c0-4.667-.266-4.933-4.133-4.933-2.267 0-6-.934-8.4-2-8.133-3.867-8.133-3.467-8.533-54.934-.4-52.933-.8-50.933 9.733-57.066 7.333-4.4 15.6-4.4 26 0 9.6 4 13.2 4.133 17.867.533 4.8-3.867 7.466-9.333 7.466-15.867 0-11.733-7.066-17.866-20.666-18-13.467 0-25.734 7.867-37.6 24l-2.934 4-.133-12.266c0-16.4-.8-18.134-6-14.667Zm128-.8c-27.067 3.6-48.667 21.2-48.667 39.6 0 5.467.667 7.067 4.534 10.933 3.466 3.467 5.6 4.534 9.333 4.534 10.8 0 15.467-5.6 18-21.734 2.267-15.066 8.267-20.933 21.6-20.933 15.467 0 22.533 9.867 23.6 32.533.4 10.4.133 13.867-1.2 15.067-2.267 1.867-24.8 10.8-44.133 17.733-29.2 10.267-41.067 22.8-41.334 43.734-.133 21.466 13.734 35.733 36.267 37.333 17.467 1.2 33.2-4.667 44.667-16.533l7.066-7.467 1.734 5.333c3.333 11.467 13.066 18.934 24.4 18.934 16 0 37.733-15.867 34.8-25.467-.934-2.667-.934-2.667-5.2.133-4.4 2.667-12.134 3.467-14.934 1.6-4.133-2.666-4.533-7.333-4.533-48.133 0-25.067-.533-44.133-1.467-48.4-2-9.333-8.533-21.467-14.4-26.667-11.2-9.866-31.066-14.666-50.133-12.133Zm28.667 96.933c0 24.534 0 24.667-3.467 28.667-6.133 7.333-14.667 11.467-24.133 11.467-6.267 0-9.067-.667-11.867-2.8-6.133-4.534-8.933-9.334-9.6-16.4-1.6-17.734 7.467-29.067 31.067-39.2 8.133-3.467 15.466-6.267 16.4-6.267 1.2 0 1.6 5.733 1.6 24.533Zm229.334-95.2c-5.468 3.067-24.668 9.334-38.268 12.667-9.6 2.267-9.733 2.4-9.733 6.667 0 4.133.267 4.4 5.6 5.067 3.867.533 6.667 1.866 8.667 4.266 3.066 3.467 3.066 3.467 3.066 54.8 0 60.934.667 58.267-14.266 62.534-2.267.666-3.067 1.866-3.067 4.8v3.866h73.331v-4.666c0-4.267-.26-4.667-4-4.667-2.13 0-5.33-.667-7.06-1.467-6.94-3.066-6.94-3.466-7.34-77.6-.26-37.866-.8-68.933-1.33-68.933-.53.133-3.07 1.333-5.6 2.666Zm88.93-.666c-28.4 5.866-47.2 25.2-42.26 43.333 2 7.333 7.73 11.067 15.73 10.267 9.73-1.067 13.6-6.534 15.6-22.4 1.73-13.467 8.8-19.867 22.13-19.867 15.34 0 22.14 9.333 23.47 32.133.67 10.934.4 14.267-1.07 15.467-2.26 1.867-25.06 11.067-43.2 17.333-17.33 6-22.4 8.8-30 15.867-8.66 8-12.4 17.067-12.4 29.2.14 22.133 15.87 36.667 39.74 36.667 16.66 0 30.93-6.134 41.86-18.134 6.14-6.533 6.8-6.933 6.8-3.6 0 1.334 1.74 5.467 4 9.2 7.74 13.6 22.8 16.267 40 7.067 9.07-4.8 17.34-13.333 17.34-18 0-4.267-1.6-4.8-6.14-1.733-4.53 2.933-12.26 3.333-16 .666-2.4-1.866-2.53-4.4-3.2-49.066-.66-44.8-.93-47.467-3.73-54.534-8.27-20.666-22.13-29.6-48.4-31.2-7.07-.4-14.53.134-20.27 1.334Zm35.07 95.6v24.266l-6.93 6.8c-10.54 10-21.47 12.534-31.87 7.2-6.53-3.2-10.4-10.8-10.53-20 0-10.933 4.66-20.133 14-27.333 5.06-3.733 29.33-14.933 33.06-15.067 2.14-.133 2.27 1.867 2.27 24.134Zm91.6 21.6c-6.4 2.4-10.13 5.6-12.4 11.067-6 14 3.6 28.4 18.8 28.4 23.47 0 28.53-32.267 6.13-39.867-5.6-1.867-6.26-1.733-12.53.4Z" />
</svg>